<svg width="20" height="19" viewBox="0 0 20 19" fill="none" xmlns="http://www.w3.org/2000/svg">
<path d="M14.3847 2.0125H18.157C18.4071 2.0125 18.6469 2.11186 18.8238 2.28871C19.0007 2.46557 19.1 2.70545 19.1 2.95556V18.0446C19.1 18.2947 19.0007 18.5345 18.8238 18.7114C18.6469 18.8883 18.4071 18.9876 18.157 18.9876H1.18183C0.931716 18.9876 0.691845 18.8883 0.514986 18.7114C0.338128 18.5345 0.23877 18.2947 0.23877 18.0446V2.95556C0.23877 2.70545 0.338128 2.46557 0.514986 2.28871C0.691845 2.11186 0.931716 2.0125 1.18183 2.0125H4.95408V0.126373H6.84021V2.0125H12.4986V0.126373H14.3847V2.0125ZM17.2139 9.557H2.12489V17.1015H17.2139V9.557ZM12.4986 3.89862H6.84021V5.78475H4.95408V3.89862H2.12489V7.67087H17.2139V3.89862H14.3847V5.78475H12.4986V3.89862ZM4.01102 11.4431H5.89714V13.3292H4.01102V11.4431ZM8.72633 11.4431H10.6125V13.3292H8.72633V11.4431ZM13.4416 11.4431H15.3278V13.3292H13.4416V11.4431Z" fill="#136A61"/>
</svg>
